<?xml version="1.0" encoding="utf-8"?>
<!-- Generator: Adobe Illustrator 24.1.0, SVG Export Plug-In . SVG Version: 6.00 Build 0)  -->
<svg version="1.1" xmlns="http://www.w3.org/2000/svg" xmlns:xlink="http://www.w3.org/1999/xlink" x="0px" y="0px"
	 viewBox="0 0 735 852" style="enable-background:new 0 0 735 852;" xml:space="preserve">
<style type="text/css">
	.st0{display:none;}
	.st1{display:inline;fill:#009BD7;}
	.st2{display:inline;fill:#005373;}
	.st3{display:inline;fill:#007EB4;}
	.st4{display:inline;}
	.st5{display:inline;opacity:0.94;}
	.st6{fill:#FFFFFF;}
	.st7{clip-path:url(#SVGID_2_);}
	.st8{fill:#27C4BC;}
	.st9{fill:#275654;}
	.st10{clip-path:url(#SVGID_4_);}
	.st11{fill:#4D8D8C;}
	.st12{fill:#076553;}
	.st13{fill:#340307;}
	.st14{fill:#E1F582;}
	.st15{fill:#FCFFE7;}
	.st16{enable-background:new    ;}
	.st17{clip-path:url(#SVGID_6_);}
	.st18{fill:#B36A3D;}
	.st19{fill:#31A2C4;}
	.st20{clip-path:url(#SVGID_8_);}
	.st21{fill:#150000;}
	.st22{clip-path:url(#SVGID_10_);}
	.st23{fill:#D6DDDB;}
	.st24{clip-path:url(#SVGID_12_);}
	.st25{fill:#939393;}
	.st26{clip-path:url(#SVGID_14_);}
	.st27{clip-path:url(#SVGID_16_);}
	.st28{clip-path:url(#SVGID_18_);}
	.st29{clip-path:url(#SVGID_20_);}
	.st30{clip-path:url(#SVGID_22_);}
	.st31{clip-path:url(#SVGID_24_);}
	.st32{clip-path:url(#SVGID_26_);}
	.st33{clip-path:url(#SVGID_28_);}
	.st34{clip-path:url(#SVGID_30_);}
	.st35{clip-path:url(#SVGID_32_);}
	.st36{clip-path:url(#SVGID_34_);}
	.st37{clip-path:url(#SVGID_36_);}
	.st38{clip-path:url(#SVGID_38_);}
	.st39{clip-path:url(#SVGID_40_);}
	.st40{clip-path:url(#SVGID_42_);}
	.st41{clip-path:url(#SVGID_44_);}
	.st42{clip-path:url(#SVGID_46_);}
	.st43{clip-path:url(#SVGID_48_);}
	.st44{clip-path:url(#SVGID_50_);}
	.st45{clip-path:url(#SVGID_52_);}
	.st46{clip-path:url(#SVGID_54_);}
	.st47{clip-path:url(#SVGID_56_);}
	.st48{clip-path:url(#SVGID_58_);}
</style>
<g id="Layer_1" class="st0">
</g>
<g id="圖層_2">
</g>
<g id="圖層_3">
</g>
<g id="圖層_4">
</g>
<g id="圖層_5">
</g>
<g id="圖層_6">
	<polygon class="st13" points="734.1,638.3 734.1,215 367.5,3.3 0.9,215 0.9,638.3 367.5,850 	"/>
</g>
<g id="圖層_7">
	<polygon class="st18" points="735,214.7 735,637.8 367.6,850 367.6,426.2 	"/>
	<polygon class="st19" points="0,214.7 0,637.8 367.4,850 367.4,426.2 	"/>
	<g>
		<g>
			<g class="st16">
				<defs>
					<polygon id="SVGID_7_" class="st16" points="393.1,644.7 394.9,525.5 717,346.9 715.2,466.1 					"/>
				</defs>
				<clipPath id="SVGID_2_">
					<use xlink:href="#SVGID_7_"  style="overflow:visible;"/>
				</clipPath>
				<g class="st7">
					<g>
						<g>
							<g>
								<path class="st21" d="M572.9,490.8c-6.3,3.5-11.6,12.2-11.7,19.4c-0.1,7.2,5,10.2,11.3,6.7c6.3-3.5,11.6-12.2,11.7-19.4
									C584.3,490.3,579.2,487.3,572.9,490.8"/>
								<path class="st21" d="M474.5,531.2c-6.3,3.5-11.6,12.2-11.7,19.4c-0.1,7.2,5,10.2,11.3,6.7c6.3-3.5,11.6-12.2,11.7-19.4
									C485.9,530.6,480.8,527.6,474.5,531.2"/>
								<path class="st15" d="M418.2,520.8l-14.1,10.3l-0.4,24.5l-9.3,5.2l-0.2,14.3l9.3-5.2l-0.7,46c-0.1,8.2,1.1,13.3,3.6,15.3
									c2.5,1.9,6.8,1.3,12.7-2c2.7-1.5,6.2-4.2,10.6-8l0.2-14.5c-2.5,2.4-5,4.2-7.5,5.6c-2,1.1-3.5,1.3-4.3,0.4
									c-0.8-0.8-1.2-3.5-1.1-7.9l0.6-42.7l13.1-7.3l0.2-14.3l-13.1,7.3L418.2,520.8"/>
								<path class="st15" d="M477.2,582.6c-4.2,2.3-8,3.2-11.5,2.7c-3.5-0.5-6.2-2.3-8.2-5.5c-1.9-3.1-2.9-7.1-2.8-12
									c0.1-4.9,1.1-10,3.2-15.3c2.1-5.3,4.9-10.2,8.4-14.7c3.5-4.4,7.4-7.8,11.6-10.1c4.3-2.4,8.1-3.2,11.6-2.6
									c3.5,0.6,6.1,2.5,8,5.6c1.9,3.1,2.8,7.1,2.7,11.9c-0.1,5-1.1,10.1-3.1,15.4c-2,5.3-4.8,10.1-8.3,14.5
									C485.3,576.9,481.4,580.3,477.2,582.6 M478.3,512.1c-7.3,4-13.8,9.5-19.6,16.3c-5.8,6.9-10.3,14.4-13.6,22.7
									c-3.3,8.3-5,16.6-5.1,24.8c-0.1,7.9,1.4,14.3,4.5,19c3.1,4.8,7.5,7.5,13.2,8.1c5.7,0.6,12.2-1.1,19.3-5
									c7-3.9,13.3-9.3,19.1-16.3c5.8-7,10.4-14.7,13.8-23.1c3.4-8.4,5.2-16.6,5.3-24.5c0.1-7.8-1.4-14-4.6-18.8
									c-3.2-4.8-7.6-7.5-13.3-8.2C491.7,506.6,485.3,508.2,478.3,512.1"/>
								<path class="st15" d="M563.1,535c-4.2,2.3-8,3.2-11.5,2.7c-3.5-0.5-6.2-2.3-8.2-5.5c-1.9-3.1-2.9-7.1-2.8-12
									c0.1-4.9,1.1-10,3.2-15.3c2.1-5.3,4.9-10.2,8.4-14.7c3.5-4.4,7.4-7.8,11.6-10.1c4.3-2.4,8.1-3.2,11.6-2.6
									c3.5,0.6,6.1,2.5,8,5.6c1.9,3.1,2.8,7.1,2.7,11.9c-0.1,5-1.1,10.1-3.1,15.3c-2,5.3-4.8,10.1-8.3,14.5
									C571.1,529.3,567.3,532.7,563.1,535 M564.1,464.5c-7.3,4-13.8,9.5-19.6,16.3c-5.8,6.9-10.3,14.5-13.6,22.7
									c-3.3,8.3-5,16.6-5.1,24.8c-0.1,7.9,1.4,14.3,4.5,19c3.1,4.8,7.5,7.5,13.2,8.1c5.7,0.6,12.2-1,19.3-5
									c7-3.9,13.3-9.3,19.1-16.3c5.8-7,10.4-14.7,13.8-23.1c3.4-8.4,5.2-16.6,5.3-24.5c0.1-7.8-1.4-14-4.6-18.8
									c-3.2-4.7-7.6-7.5-13.3-8.2C577.5,459.1,571.2,460.6,564.1,464.5"/>
								<polyline class="st15" points="636.9,391.3 610.1,410.2 609.9,422.6 622.6,413.2 621.3,501.7 608.6,508.7 608.4,523 
									646.1,502.1 646.3,487.8 635.4,493.9 636.9,391.3 								"/>
								<path class="st15" d="M683.2,399.6c-4.1,2.3-8.1,5.4-12,9.3c-3.9,3.9-7.1,8.4-9.6,13.4s-3.8,10-3.9,15
									c-0.1,6.3,1.5,10.5,4.8,12.6c3.3,2.2,8.6,2.1,15.8-0.3l7.3-2.3c6.3-2.1,10.5-3.1,12.6-2.9c2.1,0.2,3.1,1.6,3,4.2
									c-0.1,3.6-1.4,7.1-4.1,10.4c-2.7,3.3-6.3,6.2-10.9,8.8c-4.2,2.3-7.8,3.2-10.9,2.5c-3.1-0.6-5-2.7-5.6-6.3l0-2.8l-12.5,7
									l-0.4,27.9l12.5-7l0.1-4.4c2.2,0.4,4.8,0.3,8.1-0.4c3.2-0.7,6.5-2,9.9-3.8c8.5-4.7,15.3-10.7,20.4-18.1
									c5.2-7.4,7.8-14.8,7.9-22.3c0.2-12.8-6.8-16.8-20.8-11.9l-9.4,3.2c-6.3,2.3-10.3,3.3-12,2.8s-2.6-2.1-2.6-4.7
									c0-2.9,1.3-6,3.6-9.2c2.4-3.2,5.5-5.8,9.2-7.9c7.1-3.9,12.6-3.7,16.6,0.7l-0.1,5l12.3-6.8l0.4-27.1l-12.3,6.8l-0.1,3.5
									C695.8,394.2,690,395.8,683.2,399.6"/>
							</g>
						</g>
					</g>
				</g>
			</g>
		</g>
	</g>
	<g>
		<g>
			<g>
				<g class="st16">
					<defs>
						<polygon id="SVGID_9_" class="st16" points="384.2,824.6 384.5,803 406.5,790.8 406.1,812.4 						"/>
					</defs>
					<clipPath id="SVGID_4_">
						<use xlink:href="#SVGID_9_"  style="overflow:visible;"/>
					</clipPath>
					<g class="st10">
						<g>
							<g>
								<g>
									<polyline class="st23" points="390,799.9 384.3,813.8 389.6,821.6 400.6,815.5 406.3,801.6 401,793.8 390,799.9 									
										"/>
								</g>
							</g>
						</g>
					</g>
				</g>
			</g>
		</g>
		<g>
			<g>
				<g class="st16">
					<defs>
						<polygon id="SVGID_11_" class="st16" points="387.1,818.1 387.2,806.3 403.5,797.3 403.4,809.1 						"/>
					</defs>
					<clipPath id="SVGID_6_">
						<use xlink:href="#SVGID_11_"  style="overflow:visible;"/>
					</clipPath>
					<g class="st17">
						<g>
							<g>
								<g>
									<polyline class="st25" points="388,805.9 387.2,807.9 402.6,809.5 403.4,807.5 388,805.9 									"/>
								</g>
							</g>
						</g>
					</g>
				</g>
			</g>
		</g>
	</g>
	<g>
		<g>
			<g class="st16">
				<defs>
					<polygon id="SVGID_13_" class="st16" points="703.7,635.7 704,610.7 723.1,600.1 722.8,625.1 					"/>
				</defs>
				<clipPath id="SVGID_8_">
					<use xlink:href="#SVGID_13_"  style="overflow:visible;"/>
				</clipPath>
				<g class="st20">
					<g>
						<g>
							<g>
								<polyline class="st23" points="713.7,605.3 704,616.8 703.8,629.3 713.2,630.4 722.8,618.9 723.1,606.4 713.7,605.3 
																	"/>
							</g>
						</g>
					</g>
				</g>
			</g>
		</g>
	</g>
	<g>
		<g>
			<g>
				<g class="st16">
					<defs>
						<polygon id="SVGID_15_" class="st16" points="708.2,630 708.4,611.4 718.7,605.7 718.4,624.3 						"/>
					</defs>
					<clipPath id="SVGID_10_">
						<use xlink:href="#SVGID_15_"  style="overflow:visible;"/>
					</clipPath>
					<g class="st22">
						<g>
							<g>
								<g>
									<polyline class="st25" points="709.8,610.6 708.4,612.3 717,625.1 718.4,623.4 709.8,610.6 									"/>
								</g>
							</g>
						</g>
					</g>
				</g>
			</g>
		</g>
	</g>
	<g>
		<g>
			<g class="st16">
				<defs>
					<polygon id="SVGID_17_" class="st16" points="703.6,278.5 704,253.5 723.2,242.9 722.8,267.9 					"/>
				</defs>
				<clipPath id="SVGID_12_">
					<use xlink:href="#SVGID_17_"  style="overflow:visible;"/>
				</clipPath>
				<g class="st24">
					<g>
						<g>
							<g>
								<polyline class="st23" points="713.4,248.3 703.9,259.9 703.9,272.3 713.4,273.1 722.9,261.5 723,249.1 713.4,248.3 
																	"/>
							</g>
						</g>
					</g>
				</g>
			</g>
		</g>
	</g>
	<g>
		<g>
			<g class="st16">
				<defs>
					<polygon id="SVGID_19_" class="st16" points="708.2,272.9 708.5,254.2 718.6,248.6 718.3,267.2 					"/>
				</defs>
				<clipPath id="SVGID_14_">
					<use xlink:href="#SVGID_19_"  style="overflow:visible;"/>
				</clipPath>
				<g class="st26">
					<g>
						<g>
							<g>
								<polyline class="st25" points="717.2,249.3 708.2,272 709.6,272.1 718.6,249.5 717.2,249.3 								"/>
							</g>
						</g>
					</g>
				</g>
			</g>
		</g>
	</g>
	<g>
		<g>
			<g class="st16">
				<defs>
					<polygon id="SVGID_21_" class="st16" points="384.2,466.4 384.5,444.7 406.5,432.5 406.1,454.2 					"/>
				</defs>
				<clipPath id="SVGID_16_">
					<use xlink:href="#SVGID_21_"  style="overflow:visible;"/>
				</clipPath>
				<g class="st27">
					<g>
						<g>
							<g>
								<polyline class="st23" points="401,435.5 390,441.6 384.3,455.5 389.7,463.3 400.6,457.2 406.3,443.3 401,435.5 								"/>
							</g>
						</g>
					</g>
				</g>
			</g>
		</g>
	</g>
	<g>
		<g>
			<g class="st16">
				<defs>
					<polygon id="SVGID_23_" class="st16" points="394.4,460.1 394.7,439.7 396.3,438.8 396,459.2 					"/>
				</defs>
				<clipPath id="SVGID_18_">
					<use xlink:href="#SVGID_23_"  style="overflow:visible;"/>
				</clipPath>
				<g class="st28">
					<g>
						<g>
							<g>
								<polyline class="st25" points="396.3,438.8 394.7,439.7 394.4,460.1 396,459.2 396.3,438.8 								"/>
							</g>
						</g>
					</g>
				</g>
			</g>
		</g>
	</g>
	<g>
		<g>
			<g class="st16">
				<defs>
					<polygon id="SVGID_25_" class="st16" points="64.2,478 64.6,336.1 318.1,490.6 317.7,632.4 					"/>
				</defs>
				<clipPath id="SVGID_20_">
					<use xlink:href="#SVGID_25_"  style="overflow:visible;"/>
				</clipPath>
				<g class="st29">
					<g>
						<g>
							<g>
								<path class="st15" d="M70.8,351.9l-0.1,31.9l-6.2-3.8l-0.1,17l6.2,3.8l-0.2,54.4c0,9.7,0.8,17.1,2.5,22.1
									c1.7,5,4.5,8.8,8.4,11.1c1.8,1.1,4.1,1.6,7,1.7l0.1-17.1c-1.7,0.1-3.3-0.3-5-1.3c-1.4-0.8-2.3-2.2-2.9-4.1
									c-0.6-1.9-0.8-5.5-0.8-10.7l0.2-50.5l8.7,5.3l0.1-17l-8.7-5.3l0.1-30.4L70.8,351.9"/>
								<path class="st15" d="M117.3,495.8c-2.5-1.5-4.5-4.2-6-8.2c-1.6-4-2.3-8.3-2.3-12.8c0-4.8,0.9-8.2,2.7-10.2
									c1.8-2.1,3.9-2.3,6.4-0.8c4.1,2.5,8.1,8.2,12.2,17.1l0,11.3C126.2,497.3,121.9,498.5,117.3,495.8 M121.3,412
									c-4.7-2.9-8.8-3.5-12.3-1.8c-3.4,1.7-6.2,5.7-8.2,12.1l8.9,9.9c1.1-3.1,2.5-5.1,4.2-5.9c1.7-0.8,3.8-0.5,6.4,1.1
									c3.6,2.2,6.2,5.4,7.7,9.6c1.6,4.2,2.3,10,2.3,17.6l0,10.4c-4-7.9-8.3-13.3-12.9-16.2c-2.8-1.7-5.5-2.1-8.3-1.2
									c-2.8,0.9-4.9,3.2-6.6,7c-1.6,3.8-2.4,8.7-2.5,14.7c0,5.6,0.7,11.2,2.1,16.7c1.4,5.5,3.4,10.4,5.8,14.6c2.4,4.2,5.1,7.2,8,9
									c5.5,3.4,10.6,2,15.1-4.3l0,11.8l16.2,9.9l0.1-16.9l-8-4.8l0.1-45.5c0-12.6-1.4-22.8-4.3-30.4
									C132.3,421.7,127.6,415.9,121.3,412"/>
								<path class="st15" d="M172.5,445.8l-16.8-10.2l-0.1,17l7.4,4.5l-0.2,62.5l-7.4-4.5l-0.1,16.9l24,14.6l0.1-16.9l-7.2-4.4
									L172.5,445.8 M167.5,398.8c-1.5-0.9-2.8-0.6-3.9,1c-1.1,1.6-1.6,4-1.7,7.1c0,3.1,0.5,6.1,1.6,9.1c1.1,2.9,2.4,4.9,3.9,5.8
									c1.5,0.9,2.9,0.6,4-1c1.1-1.6,1.7-3.9,1.7-7c0-3.2-0.5-6.3-1.6-9.1C170.4,401.7,169.1,399.8,167.5,398.8"/>
								<path class="st15" d="M195.2,427.7l-0.1,31.9l-6.2-3.8l-0.1,17l6.2,3.8l-0.2,54.4c0,9.7,0.8,17.1,2.5,22.1
									c1.7,5,4.5,8.8,8.4,11.1c1.8,1.1,4.1,1.6,7,1.7l0.1-17.1c-1.7,0.1-3.3-0.3-5-1.3c-1.4-0.8-2.3-2.2-2.9-4.1
									c-0.6-1.9-0.8-5.5-0.8-10.7l0.2-50.5l8.7,5.3l0.1-17l-8.7-5.3l0.1-31L195.2,427.7"/>
								<path class="st15" d="M260.3,498l-2.1-1.3c-5.2-3.2-9.3-4-12.1-2.3c-2.8,1.7-5.2,6.2-7.1,13.7l0.1-21.8L222.1,476l-0.1,17
									l9.5,5.8l-0.2,62.5l-9.5-5.8l-0.1,16.9l29.1,17.8l0.1-16.9l-10.3-6.3l0.1-21.8c0-10.3,0.5-17.9,1.3-22.8
									c0.8-5,2.5-8,4.9-9.2c2.5-1.2,6.2-0.2,11.3,2.8l2,1.2L260.3,498"/>
								<path class="st15" d="M287.7,599.6c-2.5-1.5-4.5-4.2-6-8.2c-1.6-4-2.3-8.3-2.3-12.8c0-4.8,0.9-8.2,2.7-10.2
									c1.8-2.1,3.9-2.3,6.4-0.8c4.1,2.5,8.1,8.2,12.2,17.1l0,11.3C296.6,601.1,292.3,602.4,287.7,599.6 M291.7,515.9
									c-4.7-2.9-8.8-3.5-12.3-1.8c-3.4,1.7-6.2,5.7-8.2,12.1l8.9,9.9c1.1-3.1,2.5-5.1,4.3-5.9c1.7-0.8,3.8-0.5,6.4,1.1
									c3.6,2.2,6.2,5.4,7.7,9.6c1.6,4.2,2.3,10,2.3,17.6l0,10.4c-4-7.9-8.3-13.3-12.9-16.1c-2.8-1.7-5.5-2.1-8.3-1.2
									c-2.8,0.9-4.9,3.2-6.6,7c-1.6,3.8-2.5,8.7-2.5,14.7c0,5.6,0.7,11.2,2.1,16.7c1.4,5.5,3.4,10.4,5.8,14.6c2.4,4.2,5.1,7.2,8,9
									c5.5,3.4,10.6,2,15.1-4.3l0,11.8l16.2,9.9l0.1-16.9l-8-4.8l0.1-45.5c0-12.6-1.4-22.8-4.3-30.4
									C302.7,525.5,298,519.7,291.7,515.9"/>
							</g>
						</g>
					</g>
				</g>
			</g>
		</g>
	</g>
	<g>
		<g>
			<g class="st16">
				<defs>
					<polygon id="SVGID_27_" class="st16" points="326.6,810.9 327.2,781.5 339.6,788.4 339,817.8 					"/>
				</defs>
				<clipPath id="SVGID_22_">
					<use xlink:href="#SVGID_27_"  style="overflow:visible;"/>
				</clipPath>
				<g class="st30">
					<g>
						<g>
							<g>
								<polyline class="st23" points="333.3,784.9 327,789 326.8,803.8 332.9,814.4 339.2,810.3 339.3,795.5 333.3,784.9 								
									"/>
							</g>
						</g>
					</g>
				</g>
			</g>
		</g>
	</g>
	<g>
		<g>
			<g class="st16">
				<defs>
					<polygon id="SVGID_29_" class="st16" points="329.6,808.8 330,786.8 336.6,790.5 336.2,812.5 					"/>
				</defs>
				<clipPath id="SVGID_24_">
					<use xlink:href="#SVGID_29_"  style="overflow:visible;"/>
				</clipPath>
				<g class="st31">
					<g>
						<g>
							<g>
								<polyline class="st25" points="335.7,790 329.6,807.8 330.5,809.3 336.6,791.5 335.7,790 								"/>
							</g>
						</g>
					</g>
				</g>
			</g>
		</g>
	</g>
	<g>
		<g>
			<g class="st16">
				<defs>
					<polygon id="SVGID_31_" class="st16" points="18.2,629 18.7,599.6 31.7,606.8 31.1,636.1 					"/>
				</defs>
				<clipPath id="SVGID_26_">
					<use xlink:href="#SVGID_31_"  style="overflow:visible;"/>
				</clipPath>
				<g class="st32">
					<g>
						<g>
							<g>
								<polyline class="st23" points="24.6,602.8 18.6,608.1 19,623.1 25.3,632.9 31.3,627.6 30.9,612.6 24.6,602.8 								"/>
							</g>
						</g>
					</g>
				</g>
			</g>
		</g>
	</g>
	<g>
		<g>
			<g class="st16">
				<defs>
					<polygon id="SVGID_33_" class="st16" points="19.1,616.8 19.1,612.5 30.8,618.9 30.7,623.2 					"/>
				</defs>
				<clipPath id="SVGID_28_">
					<use xlink:href="#SVGID_33_"  style="overflow:visible;"/>
				</clipPath>
				<g class="st33">
					<g>
						<g>
							<g>
								<polyline class="st25" points="30.7,618.9 19.1,614.7 19.2,616.8 30.7,621.1 30.7,618.9 								"/>
							</g>
						</g>
					</g>
				</g>
			</g>
		</g>
	</g>
	<g>
		<g>
			<g class="st16">
				<defs>
					<polygon id="SVGID_35_" class="st16" points="18.4,281 18.9,251.6 31.5,258.6 30.9,288 					"/>
				</defs>
				<clipPath id="SVGID_30_">
					<use xlink:href="#SVGID_35_"  style="overflow:visible;"/>
				</clipPath>
				<g class="st34">
					<g>
						<g>
							<g>
								<polyline class="st23" points="24.9,255 18.8,259.4 18.7,274.3 24.9,284.7 31.1,280.2 31.1,265.3 24.9,255 								"/>
							</g>
						</g>
					</g>
				</g>
			</g>
		</g>
	</g>
	<g>
		<g>
			<g class="st16">
				<defs>
					<polygon id="SVGID_37_" class="st16" points="21.2,278.6 21.6,257.1 28.6,261 28.2,282.5 					"/>
				</defs>
				<clipPath id="SVGID_32_">
					<use xlink:href="#SVGID_37_"  style="overflow:visible;"/>
				</clipPath>
				<g class="st35">
					<g>
						<g>
							<g>
								<polyline class="st25" points="22.5,257.6 21.6,258.3 27.4,282 28.3,281.4 22.5,257.6 								"/>
							</g>
						</g>
					</g>
				</g>
			</g>
		</g>
	</g>
	<g>
		<g>
			<g class="st16">
				<defs>
					<polygon id="SVGID_39_" class="st16" points="337.8,457.6 343.3,429.5 355.5,439.4 350,467.4 					"/>
				</defs>
				<clipPath id="SVGID_34_">
					<use xlink:href="#SVGID_39_"  style="overflow:visible;"/>
				</clipPath>
				<g class="st36">
					<g>
						<g>
							<g>
								<polyline class="st23" points="350.9,435.6 344,434.8 339.8,447.7 342.4,461.3 349.3,462.2 353.5,449.3 350.9,435.6 
																	"/>
							</g>
						</g>
					</g>
				</g>
			</g>
		</g>
	</g>
	<g>
		<g>
			<g class="st16">
				<defs>
					<polygon id="SVGID_41_" class="st16" points="342.1,455.5 342.5,436.6 351.2,441.5 350.8,460.3 					"/>
				</defs>
				<clipPath id="SVGID_36_">
					<use xlink:href="#SVGID_41_"  style="overflow:visible;"/>
				</clipPath>
				<g class="st37">
					<g>
						<g>
							<g>
								<polyline class="st25" points="350.4,441.1 342.1,454 342.8,455.9 351.2,443 350.4,441.1 								"/>
							</g>
						</g>
					</g>
				</g>
			</g>
		</g>
	</g>
	<g>
		<g>
			<g>
				<g class="st16">
					<defs>
						<polygon id="SVGID_43_" class="st16" points="657.1,213.8 675.9,202.9 697.6,215.5 678.9,226.4 						"/>
					</defs>
					<clipPath id="SVGID_38_">
						<use xlink:href="#SVGID_43_"  style="overflow:visible;"/>
					</clipPath>
					<g class="st38">
						<g>
							<g>
								<g>
									<polyline class="st23" points="692.2,212.4 681.3,206.1 666.5,208.4 662.6,217 673.5,223.2 688.3,220.9 692.2,212.4 
																			"/>
								</g>
							</g>
						</g>
					</g>
				</g>
			</g>
		</g>
		<g>
			<g>
				<g class="st16">
					<defs>
						<polygon id="SVGID_45_" class="st16" points="667.8,219.3 685.4,209.1 687,210 669.4,220.2 						"/>
					</defs>
					<clipPath id="SVGID_40_">
						<use xlink:href="#SVGID_45_"  style="overflow:visible;"/>
					</clipPath>
					<g class="st39">
						<g>
							<g>
								<g>
									<polyline class="st25" points="687,210 685.4,209.1 667.8,219.3 669.4,220.2 687,210 									"/>
								</g>
							</g>
						</g>
					</g>
				</g>
			</g>
		</g>
	</g>
	<g>
		<g>
			<g>
				<g class="st16">
					<defs>
						<polygon id="SVGID_47_" class="st16" points="346.8,388.8 366.8,377.2 388.4,389.6 368.4,401.2 						"/>
					</defs>
					<clipPath id="SVGID_42_">
						<use xlink:href="#SVGID_47_"  style="overflow:visible;"/>
					</clipPath>
					<g class="st40">
						<g>
							<g>
								<g>
									<polyline class="st23" points="373.4,381 358.2,382.1 352.4,390.3 361.8,397.4 377,396.3 382.8,388 373.4,381 									"/>
								</g>
							</g>
						</g>
					</g>
				</g>
			</g>
		</g>
		<g>
			<g>
				<g class="st16">
					<defs>
						<polygon id="SVGID_49_" class="st16" points="355,386.7 363.2,381.9 380.2,391.7 372,396.5 						"/>
					</defs>
					<clipPath id="SVGID_44_">
						<use xlink:href="#SVGID_49_"  style="overflow:visible;"/>
					</clipPath>
					<g class="st41">
						<g>
							<g>
								<g>
									<polyline class="st25" points="379.6,391.4 356.4,385.8 355.6,387 378.7,392.6 379.6,391.4 									"/>
								</g>
							</g>
						</g>
					</g>
				</g>
			</g>
		</g>
	</g>
	<g>
		<g>
			<g>
				<g class="st16">
					<defs>
						<polygon id="SVGID_51_" class="st16" points="34.7,215.4 56.3,202.8 75.5,213.9 53.9,226.5 						"/>
					</defs>
					<clipPath id="SVGID_46_">
						<use xlink:href="#SVGID_51_"  style="overflow:visible;"/>
					</clipPath>
					<g class="st42">
						<g>
							<g>
								<g>
									<polyline class="st23" points="65.5,208.2 50.6,206.2 40.1,212.7 44.7,221.2 59.6,223.2 70.1,216.7 65.5,208.2 									
										"/>
								</g>
							</g>
						</g>
					</g>
				</g>
			</g>
		</g>
		<g>
			<g>
				<g class="st16">
					<defs>
						<polygon id="SVGID_53_" class="st16" points="42.1,216.6 58.4,207.1 68.1,212.7 51.8,222.2 						"/>
					</defs>
					<clipPath id="SVGID_48_">
						<use xlink:href="#SVGID_53_"  style="overflow:visible;"/>
					</clipPath>
					<g class="st43">
						<g>
							<g>
								<g>
									<polyline class="st25" points="66.7,211.9 42.8,216.2 43.5,217.4 67.4,213.2 66.7,211.9 									"/>
								</g>
							</g>
						</g>
					</g>
				</g>
			</g>
		</g>
	</g>
	<g>
		<g>
			<g>
				<g class="st16">
					<defs>
						<polygon id="SVGID_55_" class="st16" points="346.5,35 367.8,22.6 388.3,34.4 367,46.8 						"/>
					</defs>
					<clipPath id="SVGID_50_">
						<use xlink:href="#SVGID_55_"  style="overflow:visible;"/>
					</clipPath>
					<g class="st44">
						<g>
							<g>
								<g>
									<polyline class="st23" points="376.2,27.4 360.9,26.7 352.1,33.9 358.6,42 373.9,42.8 382.7,35.5 376.2,27.4 									"/>
								</g>
							</g>
						</g>
					</g>
				</g>
			</g>
		</g>
		<g>
			<g>
				<g class="st16">
					<defs>
						<polygon id="SVGID_57_" class="st16" points="353.9,35.3 368.4,26.9 381,34.1 366.4,42.6 						"/>
					</defs>
					<clipPath id="SVGID_52_">
						<use xlink:href="#SVGID_57_"  style="overflow:visible;"/>
					</clipPath>
					<g class="st45">
						<g>
							<g>
								<g>
									<polyline class="st25" points="369.6,27.6 367.4,27.5 365.2,41.9 367.5,42 369.6,27.6 									"/>
								</g>
							</g>
						</g>
					</g>
				</g>
			</g>
		</g>
	</g>
</g>
<g id="圖層_8">
</g>
</svg>
